<svg width="19" height="18" viewBox="0 0 19 18" fill="none" xmlns="http://www.w3.org/2000/svg">
<g id="folders__82">
<path id="Shape" fill-rule="evenodd" clip-rule="evenodd" d="M13.1 16.875H2.525C1.40788 16.875 0.5 15.9671 0.5 14.85V6.1875C0.5 5.256 1.256 4.5 2.1875 4.5H2.75V11.7697C2.75 13.3459 4.02913 14.625 5.60525 14.625H15.125V14.85C15.125 15.9671 14.2183 16.875 13.1 16.875ZM16.475 13.5H5.9C4.78288 13.5 3.875 12.5921 3.875 11.475V2.8125C3.875 1.881 4.631 1.125 5.5625 1.125H10.0625C10.994 1.125 11.75 1.881 11.75 2.8125V3.375H16.475C17.5933 3.375 18.5 4.28288 18.5 5.4V11.475C18.5 12.5921 17.5933 13.5 16.475 13.5Z" fill="#1EE600"/>
</g>
</svg>
