<svg width="154" height="36" viewBox="0 0 154 36" fill="none" xmlns="http://www.w3.org/2000/svg">
<rect x="0.5" y="0.5" width="153" height="35" rx="7.5" fill="#023400"/>
<rect x="0.5" y="0.5" width="153" height="35" rx="7.5" stroke="#1EE600"/>
<path d="M37.1191 22V13.5449H38.4316V17.1191H42.7676V13.5449H44.0859V22H42.7676V18.2559H38.4316V22H37.1191ZM47.9297 22.1055C47.5273 22.1055 47.166 22.0293 46.8457 21.877C46.5293 21.7207 46.2793 21.5 46.0957 21.2148C45.9121 20.9297 45.8203 20.5957 45.8203 20.2129V20.2012C45.8203 19.8184 45.9121 19.4922 46.0957 19.2227C46.2832 18.9531 46.5527 18.7422 46.9043 18.5898C47.2598 18.4336 47.6895 18.3398 48.1934 18.3086L50.543 18.168V19.0645L48.3691 19.2051C47.9316 19.2324 47.6094 19.3262 47.4023 19.4863C47.1953 19.6426 47.0918 19.8633 47.0918 20.1484V20.1602C47.0918 20.4492 47.2031 20.6777 47.4258 20.8457C47.6484 21.0098 47.9297 21.0918 48.2695 21.0918C48.5859 21.0918 48.8672 21.0293 49.1133 20.9043C49.3633 20.7754 49.5586 20.6035 49.6992 20.3887C49.8398 20.1699 49.9102 19.9238 49.9102 19.6504V17.6465C49.9102 17.2949 49.8008 17.0273 49.582 16.8438C49.3672 16.6562 49.0469 16.5625 48.6211 16.5625C48.2656 16.5625 47.9746 16.625 47.748 16.75C47.5254 16.875 47.377 17.0508 47.3027 17.2773L47.291 17.2949H46.0664L46.0723 17.2539C46.123 16.9023 46.2617 16.5977 46.4883 16.3398C46.7188 16.0781 47.0195 15.875 47.3906 15.7305C47.7656 15.5859 48.1934 15.5137 48.6738 15.5137C49.209 15.5137 49.6621 15.5996 50.0332 15.7715C50.4082 15.9395 50.6914 16.1836 50.8828 16.5039C51.0781 16.8203 51.1758 17.2012 51.1758 17.6465V22H49.9102V21.0977H49.8164C49.6914 21.3125 49.5352 21.4961 49.3477 21.6484C49.1602 21.7969 48.9473 21.9102 48.709 21.9883C48.4707 22.0664 48.2109 22.1055 47.9297 22.1055ZM58.1836 22H56.9121V19.4102H56.8125C56.6445 19.5352 56.4355 19.6328 56.1855 19.7031C55.9355 19.7734 55.6445 19.8086 55.3125 19.8086C54.5508 19.8086 53.9668 19.5977 53.5605 19.1758C53.1582 18.7539 52.957 18.1953 52.957 17.5V15.6367H54.2285V17.4297C54.2285 17.832 54.332 18.1484 54.5391 18.3789C54.75 18.6055 55.0605 18.7188 55.4707 18.7188C55.709 18.7188 55.9199 18.6992 56.1035 18.6602C56.2871 18.6211 56.4473 18.5684 56.584 18.502C56.7207 18.4355 56.8301 18.3594 56.9121 18.2734V15.6367H58.1836V22ZM60.123 22V15.6367H61.3887V20.1016H62.0508L61.1895 20.582L64.3711 15.6367H65.6367V22H64.3711V17.5176H63.709L64.5703 17.0312L61.3887 22H60.123ZM71.7305 22V19.2109H68.8535V22H67.5762V15.6367H68.8535V18.2031H71.7305V15.6367H73.0078V22H71.7305ZM76.6992 22.1055C76.2969 22.1055 75.9355 22.0293 75.6152 21.877C75.2988 21.7207 75.0488 21.5 74.8652 21.2148C74.6816 20.9297 74.5898 20.5957 74.5898 20.2129V20.2012C74.5898 19.8184 74.6816 19.4922 74.8652 19.2227C75.0527 18.9531 75.3223 18.7422 75.6738 18.5898C76.0293 18.4336 76.459 18.3398 76.9629 18.3086L79.3125 18.168V19.0645L77.1387 19.2051C76.7012 19.2324 76.3789 19.3262 76.1719 19.4863C75.9648 19.6426 75.8613 19.8633 75.8613 20.1484V20.1602C75.8613 20.4492 75.9727 20.6777 76.1953 20.8457C76.418 21.0098 76.6992 21.0918 77.0391 21.0918C77.3555 21.0918 77.6367 21.0293 77.8828 20.9043C78.1328 20.7754 78.3281 20.6035 78.4688 20.3887C78.6094 20.1699 78.6797 19.9238 78.6797 19.6504V17.6465C78.6797 17.2949 78.5703 17.0273 78.3516 16.8438C78.1367 16.6562 77.8164 16.5625 77.3906 16.5625C77.0352 16.5625 76.7441 16.625 76.5176 16.75C76.2949 16.875 76.1465 17.0508 76.0723 17.2773L76.0605 17.2949H74.8359L74.8418 17.2539C74.8926 16.9023 75.0312 16.5977 75.2578 16.3398C75.4883 16.0781 75.7891 15.875 76.1602 15.7305C76.5352 15.5859 76.9629 15.5137 77.4434 15.5137C77.9785 15.5137 78.4316 15.5996 78.8027 15.7715C79.1777 15.9395 79.4609 16.1836 79.6523 16.5039C79.8477 16.8203 79.9453 17.2012 79.9453 17.6465V22H78.6797V21.0977H78.5859C78.4609 21.3125 78.3047 21.4961 78.1172 21.6484C77.9297 21.7969 77.7168 21.9102 77.4785 21.9883C77.2402 22.0664 76.9805 22.1055 76.6992 22.1055ZM86.6074 15.6367V16.6445H84.6035V22H83.332V16.6445H81.3281V15.6367H86.6074ZM88.0254 22V15.6367H89.3027V17.6055H90.5508C91.2891 17.6055 91.877 17.8047 92.3145 18.2031C92.752 18.5977 92.9707 19.1289 92.9707 19.7969V19.8086C92.9707 20.4766 92.752 21.0098 92.3145 21.4082C91.877 21.8027 91.2891 22 90.5508 22H88.0254ZM90.4453 18.6133H89.3027V20.9922H90.4453C90.8281 20.9922 91.1309 20.8848 91.3535 20.6699C91.5762 20.4512 91.6875 20.1641 91.6875 19.8086V19.7969C91.6875 19.4375 91.5742 19.1504 91.3477 18.9355C91.125 18.7207 90.8242 18.6133 90.4453 18.6133Z" fill="#1EE600"/>
<path d="M103.833 13.8333L112.166 22.1666" stroke="#1EE600" stroke-width="1.14286" stroke-linecap="round" stroke-linejoin="round"/>
<path d="M112.166 13.8333V22.1666H103.833" stroke="#1EE600" stroke-width="1.14286" stroke-linecap="round" stroke-linejoin="round"/>
</svg>
