<svg width="24" height="25" viewBox="0 0 24 25" fill="none" xmlns="http://www.w3.org/2000/svg">
<g id="GlobeHemisphereWest" clip-path="url(#clip0_48_8269)">
<path id="Vector" d="M12 21.5C16.9706 21.5 21 17.4706 21 12.5C21 7.52944 16.9706 3.5 12 3.5C7.02944 3.5 3 7.52944 3 12.5C3 17.4706 7.02944 21.5 12 21.5Z" stroke="#1EE600" stroke-width="1.5" stroke-linecap="round" stroke-linejoin="round"/>
<path id="Vector_2" d="M7.11374 12.0556L8.36249 9.87501C8.42841 9.76083 8.52326 9.66605 8.63749 9.60021C8.75171 9.53438 8.88127 9.49982 9.01311 9.50001H10.5797C10.7063 9.50022 10.8309 9.46794 10.9416 9.40626L12.0937 8.77251C12.1444 8.74524 12.1914 8.71152 12.2334 8.6722L14.7572 6.39126C14.8827 6.27705 14.9659 6.12363 14.9929 5.95606C15.02 5.7885 14.9894 5.6167 14.9062 5.46876L13.9219 3.70532" stroke="#1EE600" stroke-width="1.5" stroke-linecap="round" stroke-linejoin="round"/>
<path id="Vector_3" d="M6.35434 5.49036L5.24997 8.10129C5.17537 8.27805 5.17134 8.47666 5.23872 8.65629L6.31684 11.5316C6.36114 11.6491 6.43422 11.7536 6.52939 11.8355C6.62455 11.9174 6.73876 11.9741 6.86153 12.0004L8.87059 12.4325C8.98202 12.4564 9.08654 12.5054 9.17621 12.5758C9.26588 12.6461 9.33834 12.7359 9.38809 12.8385L9.74434 13.5763C9.80579 13.703 9.9017 13.8099 10.0211 13.8847C10.1405 13.9595 10.2785 13.9991 10.4193 13.9991H11.7131" stroke="#1EE600" stroke-width="1.5" stroke-linecap="round" stroke-linejoin="round"/>
<path id="Vector_4" d="M19.9772 16.67L15.0666 13.6493C14.9773 13.5949 14.8777 13.5595 14.7741 13.5453L12.6347 13.2565C12.474 13.2348 12.3106 13.2657 12.169 13.3446C12.0274 13.4235 11.9151 13.5463 11.8491 13.6943L10.5647 16.5762C10.505 16.7103 10.486 16.859 10.51 17.0038C10.534 17.1486 10.6 17.2832 10.6997 17.3909L12.5503 19.2968C12.6306 19.3831 12.6894 19.487 12.7219 19.6002C12.7545 19.7134 12.76 19.8327 12.7378 19.9484L12.4407 21.4897" stroke="#1EE600" stroke-width="1.5" stroke-linecap="round" stroke-linejoin="round"/>
</g>
<defs>
<clipPath id="clip0_48_8269">
<rect width="24" height="24" fill="white" transform="translate(0 0.5)"/>
</clipPath>
</defs>
</svg>
